# xmcd CD database file
#
# Track frame offsets:
#	150
#	10372
#	26234
#	38761
#	55151
#	77051
#	91464
#	112955
#	127947
#	142629
#	167192
#	181287
#	207326
#	223690
#
# Disc length: 3432 seconds
#
# Revision: 1
# Processed by: cddbd v1.5.2PL0 Copyright (c) Steve Scherf et al.
# Submitted via: CDex 1.70beta2
#
DISCID=b90d660e
DTITLE=Veteran Western - IV. - 25 let
DYEAR=2004
DGENRE=Country
TTITLE0=Vystrazna
TTITLE1=Ceka na mne raj
TTITLE2=Touha
TTITLE3=Holka akorat
TTITLE4=Madelaine
TTITLE5=Psice nazrzla
TTITLE6=Hrobnicka
TTITLE7=Mam te rad tim vic
TTITLE8=Zlodej dobytka
TTITLE9=Balada ze Scarborough
TTITLE10=Kovadlinka
TTITLE11=Holka ze samoty
TTITLE12=Prima sen
TTITLE13=Je to bez sance
EXTD=YEAR: 2004
EXTT0=
EXTT1=
EXTT2=
EXTT3=
EXTT4=
EXTT5=
EXTT6=
EXTT7=
EXTT8=
EXTT9=
EXTT10=
EXTT11=
EXTT12=
EXTT13=
PLAYORDER=
